<?xml version="1.0" standalone="no"?>
<!DOCTYPE svg PUBLIC "-//W3C//DTD SVG 20010904//EN"
 "http://www.w3.org/TR/2001/REC-SVG-20010904/DTD/svg10.dtd">
<svg version="1.0" xmlns="http://www.w3.org/2000/svg"
 width="1024.000000pt" height="1024.000000pt" viewBox="0 0 1024.000000 1024.000000"
 preserveAspectRatio="xMidYMid meet">

<g transform="translate(0.000000,1024.000000) scale(0.100000,-0.100000)"
fill="#000000" stroke="none">
<path d="M10 5115 l0 -5115 5115 3 5115 2 0 5113 0 5112 -5115 0 -5115 0 0
-5115z m5163 3363 c45 -44 91 -158 137 -343 47 -186 71 -372 76 -579 2 -123 7
-163 18 -174 13 -13 18 -8 46 42 83 146 152 154 180 19 15 -70 9 -174 -22
-368 -23 -146 -28 -302 -13 -466 13 -155 -35 -352 -127 -522 l-15 -28 -7 31
c-6 30 -43 74 -80 95 -18 11 -18 15 4 162 l23 151 -19 69 c-18 60 -22 68 -44
68 -20 0 -25 -5 -28 -30 -6 -73 -35 -272 -43 -292 -9 -25 -38 -22 -65 8 -19
21 -25 184 -38 1014 -5 324 -11 375 -47 375 -41 0 -43 -21 -50 -585 -4 -297
-7 -593 -8 -657 l-1 -116 -34 -21 c-18 -12 -36 -21 -39 -21 -11 0 -27 67 -42
175 -8 60 -18 117 -20 127 -9 28 -32 28 -46 0 -7 -15 -22 -34 -32 -43 -19 -15
-19 -21 -8 -114 7 -54 19 -122 27 -152 16 -62 18 -103 5 -103 -17 0 -72 -53
-82 -77 -5 -12 -13 -23 -17 -23 -24 0 -123 278 -137 386 -3 27 -8 65 -11 84
-3 19 -2 52 2 73 5 32 9 38 26 34 19 -5 20 -2 13 101 -4 59 -13 139 -21 177
-36 173 -46 238 -51 355 -5 108 -3 131 12 160 54 106 98 93 169 -48 19 -38 32
-52 44 -50 15 3 18 26 23 203 5 136 14 240 28 325 33 185 97 436 129 498 57
116 119 142 185 80z m-1696 -343 c54 -23 153 -108 303 -262 262 -268 461 -546
622 -873 45 -91 90 -177 100 -192 19 -27 19 -28 -3 -57 -19 -26 -21 -39 -17
-135 3 -104 3 -106 -14 -84 -25 31 -160 256 -243 403 -112 199 -282 479 -308
507 -29 31 -67 28 -67 -5 0 -20 84 -187 174 -345 354 -623 364 -649 239 -568
-37 24 -91 55 -119 69 -28 14 -71 48 -95 75 -109 122 -354 581 -446 837 -14
39 -55 138 -90 220 -79 184 -133 329 -133 358 0 28 27 67 46 67 8 0 31 -7 51
-15z m3353 -7 c11 -12 20 -24 20 -28 0 -15 -54 -169 -84 -238 -19 -42 -37 -88
-41 -102 -4 -14 -41 -100 -81 -191 -40 -91 -82 -189 -93 -217 -32 -82 -155
-321 -217 -423 -136 -225 -179 -282 -239 -319 -32 -19 -100 -63 -151 -96 -52
-34 -94 -56 -94 -50 0 13 144 302 160 321 9 11 68 121 113 210 17 33 40 74 53
90 12 17 34 55 50 85 16 30 50 89 77 129 49 76 55 106 25 124 -31 20 -62 -7
-118 -104 -90 -157 -239 -408 -306 -516 -35 -56 -64 -106 -65 -110 -1 -16 -94
-147 -107 -151 -12 -4 -12 0 -1 19 17 32 17 144 0 195 -12 37 -11 48 4 94 53
159 127 295 301 550 145 211 534 634 668 724 48 33 98 34 126 4z m1085 -930
c24 -18 27 -26 22 -61 -12 -86 -215 -331 -478 -573 -152 -141 -202 -184 -347
-304 -94 -77 -96 -104 -7 -90 59 10 115 -2 139 -29 39 -42 -8 -89 -194 -196
-249 -143 -284 -166 -400 -250 -122 -89 -277 -185 -388 -239 -66 -33 -253
-106 -270 -106 -5 0 4 26 20 58 19 38 30 80 35 127 6 73 15 95 40 95 8 0 67
24 131 54 64 30 144 64 177 77 55 22 60 27 60 54 0 44 -33 43 -151 -1 -54 -20
-121 -44 -149 -54 -27 -9 -57 -20 -66 -24 -13 -6 -21 3 -34 39 -10 25 -16 47
-14 49 2 1 31 18 64 36 33 19 159 97 280 173 475 302 795 539 795 589 0 34
-29 31 -83 -7 -71 -50 -340 -227 -462 -304 -55 -34 -161 -101 -235 -148 -373
-238 -444 -271 -481 -227 -15 18 -26 7 160 162 81 68 111 99 111 115 0 26 -17
47 -37 47 -8 0 -62 -41 -120 -91 -59 -51 -133 -109 -166 -130 -58 -38 -59 -38
-157 -37 -54 0 -103 -3 -109 -6 -21 -13 -11 6 34 69 80 112 294 286 535 435
187 116 226 142 360 244 136 103 234 166 262 166 25 0 58 -36 58 -62 0 -13
-18 -52 -40 -88 -22 -36 -35 -67 -30 -68 14 -5 134 62 197 109 72 54 415 244
554 307 149 67 275 111 320 112 23 0 47 -8 64 -22z m-5370 -56 c228 -90 508
-236 695 -362 105 -71 228 -123 223 -95 -1 6 -18 37 -38 70 -39 65 -43 110
-13 129 30 18 116 -18 192 -80 113 -93 254 -192 381 -267 275 -162 470 -309
613 -462 72 -78 88 -104 55 -90 -36 16 -187 27 -221 17 -31 -10 -36 -8 -115
57 -120 99 -237 181 -258 181 -15 0 -19 -8 -19 -33 0 -29 9 -40 73 -92 87 -72
177 -155 177 -165 0 -4 -18 -15 -41 -25 -30 -14 -45 -16 -57 -8 -32 20 -197
123 -345 216 -81 51 -221 139 -310 196 -275 176 -472 292 -503 294 -22 2 -30
-3 -32 -19 -2 -16 27 -41 140 -123 258 -185 375 -264 568 -386 454 -286 468
-297 425 -345 -16 -17 -19 -17 -78 7 -110 45 -221 83 -243 83 -26 0 -47 -23
-42 -45 3 -15 116 -72 273 -137 28 -12 65 -32 83 -45 29 -22 32 -29 26 -57 -8
-45 10 -105 46 -154 16 -23 30 -44 30 -46 0 -8 -55 12 -197 72 -157 67 -256
120 -408 219 -55 35 -161 104 -235 152 -74 49 -193 119 -263 157 -172 91 -217
144 -167 194 17 17 33 20 105 20 82 0 85 1 85 23 0 29 -30 57 -95 90 -104 52
-474 392 -630 577 -84 100 -161 214 -176 258 -11 34 -10 37 21 65 29 26 38 29
79 24 26 -3 114 -32 196 -65z m2586 -939 c35 -30 59 -78 59 -119 0 -23 3 -25
23 -20 67 19 72 18 105 -15 l32 -32 -3 -97 c-3 -90 -5 -101 -36 -148 -48 -76
-51 -77 -110 -48 -79 40 -162 32 -224 -22 -9 -8 -19 -13 -21 -11 -2 2 -32 48
-66 102 -58 91 -62 101 -57 143 2 24 16 66 29 92 24 47 25 47 76 47 52 -1 52
-1 58 35 9 47 31 83 63 103 34 21 34 21 72 -10z m-503 -352 c67 -34 106 -71
134 -126 11 -22 30 -53 41 -69 l20 -29 -56 -51 c-68 -62 -87 -99 -87 -169 l0
-54 -46 -7 c-103 -14 -140 -8 -173 25 -17 17 -31 25 -31 19 0 -22 -54 0 -87
35 -40 42 -42 79 -10 137 19 34 20 41 7 46 -28 10 -80 70 -80 92 0 45 59 120
94 120 12 0 39 -11 61 -25 45 -27 55 -30 55 -14 0 24 34 81 54 89 33 14 43 12
104 -19z m1069 -26 c12 -22 24 -44 26 -48 1 -5 20 1 40 13 51 30 121 24 154
-15 46 -53 19 -141 -52 -166 l-34 -13 30 -38 c32 -39 39 -80 21 -113 -17 -33
-61 -69 -85 -71 -12 -1 -35 -7 -52 -14 -16 -7 -64 -15 -106 -18 -87 -5 -79
-12 -99 90 -14 71 -57 137 -110 167 -22 12 -40 27 -40 33 0 18 92 148 124 175
42 35 106 64 136 61 17 -2 31 -15 47 -43z m2367 -99 c67 -28 75 -87 18 -138
-45 -41 -319 -191 -471 -259 -201 -89 -432 -163 -714 -228 l-168 -39 -56 34
c-30 18 -95 48 -144 65 -80 29 -105 49 -61 49 39 0 476 103 654 154 311 89
358 108 358 143 0 13 -7 26 -15 29 -9 4 -82 -10 -163 -30 -761 -185 -954 -217
-929 -153 3 9 39 34 79 57 40 23 104 60 141 83 92 54 176 83 342 118 77 17
174 38 215 49 41 10 98 21 125 25 28 3 104 15 170 26 212 36 549 44 619 15z
m-5314 -16 c204 -28 368 -60 570 -109 189 -46 193 -47 320 -122 52 -31 124
-72 159 -90 36 -19 67 -40 69 -48 12 -37 -315 14 -704 109 -274 67 -378 89
-387 80 -5 -4 -7 -20 -5 -36 3 -28 8 -31 128 -67 174 -53 466 -131 649 -173
85 -19 162 -39 172 -45 10 -5 27 -9 39 -9 36 0 13 -17 -63 -45 -39 -15 -94
-40 -122 -56 l-50 -27 -115 18 c-362 60 -767 209 -1129 417 -141 80 -185 128
-161 172 25 48 90 60 305 56 101 -2 233 -12 325 -25z m2400 -108 c16 -16 33
-48 40 -70 12 -47 22 -50 65 -22 42 28 76 25 108 -8 32 -34 34 -68 6 -116
l-20 -35 52 -50 c51 -49 52 -51 46 -98 -4 -38 -12 -53 -39 -76 -23 -19 -39
-26 -53 -21 -11 3 -33 7 -50 8 -29 1 -30 -1 -35 -48 -4 -44 -7 -47 -19 -33
-12 16 -19 12 -70 -43 -72 -76 -103 -80 -162 -21 -34 33 -39 45 -39 84 0 48
-19 67 -40 41 -23 -26 -91 -13 -130 26 -13 13 -20 33 -20 60 0 33 7 48 40 84
22 24 40 46 40 50 0 4 -13 18 -29 32 -42 35 -47 69 -17 113 14 20 38 44 54 53
27 16 31 16 72 -4 42 -21 43 -21 56 -3 8 10 14 26 14 36 0 33 56 85 93 88 5 1
21 -12 37 -27z m-942 -462 l-41 -79 -85 -36 c-46 -19 -87 -35 -90 -35 -4 0
-18 -10 -32 -21 l-25 -21 75 6 c41 4 84 7 95 9 17 2 19 -3 17 -28 -2 -16 -5
-31 -6 -33 -7 -6 -211 -60 -334 -88 -19 -4 -23 -10 -20 -37 3 -29 7 -32 38
-35 41 -4 111 10 239 49 51 16 97 26 102 23 5 -3 9 -21 9 -40 0 -41 17 -32
-305 -164 -290 -119 -388 -162 -595 -257 -408 -187 -409 -188 -377 -220 12
-12 23 -12 73 3 64 18 426 162 539 214 39 17 158 67 265 111 107 43 260 108
340 144 80 36 155 65 167 65 26 0 36 -14 29 -38 -6 -18 -147 -128 -218 -171
-21 -13 -38 -30 -38 -40 0 -20 27 -61 41 -61 6 0 83 48 172 106 l161 106 40
-14 c43 -14 142 -16 189 -4 27 6 28 6 15 -13 -28 -39 -154 -144 -257 -213
-113 -75 -259 -152 -471 -246 -75 -33 -160 -75 -190 -94 -73 -47 -205 -113
-256 -128 -50 -15 -80 -2 -90 36 -8 30 6 64 48 116 17 22 28 42 24 45 -3 4
-41 -6 -84 -21 -447 -160 -985 -306 -1124 -306 -58 0 -98 27 -98 65 0 64 173
252 377 412 91 71 146 103 350 204 134 66 247 128 252 138 9 17 4 19 -66 25
-86 7 -116 25 -111 64 4 37 40 58 199 117 174 64 302 121 604 270 193 94 276
130 435 188 8 3 25 6 38 6 21 1 20 -2 -20 -79z m383 60 l89 0 0 -42 c0 -24 5
-61 11 -83 14 -48 79 -115 114 -115 13 0 27 -5 30 -10 9 -15 -39 -94 -99 -164
-57 -66 -106 -95 -174 -103 -62 -7 -91 15 -99 75 -6 46 -9 48 -37 27 -11 -8
-41 -15 -67 -15 -40 0 -51 4 -73 31 -18 21 -26 42 -26 67 0 31 8 44 54 88 l55
51 -25 36 c-29 44 -29 47 -2 82 39 50 100 87 132 81 16 -3 68 -6 117 -6z
m1229 -24 c36 -23 80 -78 80 -98 0 -3 -12 -21 -26 -38 l-27 -31 40 -42 c49
-51 63 -76 63 -116 0 -25 -7 -35 -37 -54 -54 -34 -63 -36 -107 -21 -56 20 -64
18 -72 -21 -21 -116 -164 -88 -254 50 -22 34 -50 71 -60 80 -31 28 -24 48 35
99 61 52 91 102 101 168 4 23 10 45 15 48 4 3 53 4 108 4 92 -1 105 -4 141
-28z m280 10 c141 -39 329 -120 625 -266 88 -44 243 -114 345 -155 102 -41
192 -83 201 -94 23 -28 13 -69 -24 -91 -23 -14 -42 -17 -83 -13 -38 4 -54 2
-54 -6 0 -27 53 -60 200 -125 163 -72 259 -126 375 -211 151 -111 327 -292
371 -382 25 -51 26 -54 10 -78 -24 -36 -52 -44 -126 -34 -158 22 -716 178
-940 262 -36 14 -93 35 -127 48 -34 13 -65 21 -69 17 -3 -4 12 -30 35 -59 52
-66 56 -111 11 -134 -16 -8 -41 -15 -55 -15 -25 0 -177 75 -287 142 -31 19
-94 50 -140 68 -145 57 -434 207 -546 282 -59 40 -136 102 -172 138 l-65 65
80 6 c44 3 94 9 110 13 26 6 52 -6 190 -89 171 -102 209 -113 226 -67 11 28
-5 42 -121 112 -132 79 -168 124 -120 150 21 11 39 4 400 -147 373 -157 685
-289 817 -344 150 -63 186 -69 191 -32 2 17 -7 28 -38 48 -104 66 -859 402
-1080 481 -96 34 -169 71 -176 89 -8 19 14 55 32 55 9 0 53 -11 98 -24 101
-30 214 -56 244 -56 25 0 49 39 39 63 -3 8 -29 20 -59 26 -189 42 -312 76
-333 93 -45 35 -32 41 74 34 101 -7 166 0 140 14 -8 5 -61 24 -118 44 -119 42
-127 47 -136 86 -3 16 -20 47 -36 69 -36 50 -30 51 91 17z m-1065 -368 c57
-23 94 -20 174 14 l53 21 24 -29 c70 -86 78 -103 79 -177 3 -94 -9 -141 -43
-167 -26 -21 -64 -23 -104 -6 -13 6 -17 -1 -23 -35 -8 -45 -42 -85 -82 -95
-42 -11 -103 68 -103 131 0 24 -3 26 -22 20 -84 -27 -109 -17 -141 54 -32 74
-9 162 70 258 25 31 41 42 52 37 9 -4 38 -15 66 -26z m459 -440 c62 -136 118
-377 102 -441 -3 -15 -13 -27 -23 -27 -14 0 -15 -12 -9 -108 3 -60 17 -176 30
-258 32 -193 39 -287 30 -407 -6 -84 -10 -103 -31 -128 -14 -17 -35 -29 -48
-29 -26 0 -65 41 -95 101 -20 39 -37 55 -47 45 -3 -3 -7 -77 -9 -165 -6 -342
-57 -654 -164 -1015 -32 -109 -65 -156 -110 -156 -68 0 -126 130 -200 453 -65
278 -72 335 -76 612 -3 143 -7 270 -10 283 -9 44 -41 27 -74 -40 -56 -112 -99
-135 -144 -75 -19 26 -21 41 -20 165 1 126 44 510 74 655 14 70 13 77 -15 77
-13 0 -29 8 -34 18 -10 19 1 154 21 237 12 52 91 242 107 258 6 6 21 -4 41
-27 18 -20 43 -39 56 -42 28 -7 29 -18 10 -111 -8 -37 -17 -113 -21 -168 -6
-90 -4 -103 14 -132 21 -34 53 -43 67 -21 5 7 16 74 25 150 22 172 24 175 70
144 l36 -25 6 -158 c4 -87 7 -324 7 -528 0 -529 9 -772 29 -796 22 -28 48 -15
61 29 6 23 10 245 10 583 0 300 3 621 7 712 l6 167 33 25 33 25 10 -38 c6 -21
20 -98 31 -172 11 -73 24 -138 29 -143 20 -20 51 4 65 52 12 43 12 65 -5 200
-10 84 -21 161 -24 172 -5 14 -2 19 13 19 20 0 92 71 92 90 0 24 14 5 44 -62z
m437 -244 c156 -85 197 -114 276 -195 280 -289 513 -636 635 -944 81 -206 105
-329 71 -367 -22 -25 -73 -23 -109 5 -59 46 -772 765 -844 852 -41 50 -109
137 -151 195 l-77 105 7 138 6 138 200 -242 c180 -218 247 -296 450 -532 78
-91 106 -111 140 -103 l26 7 -18 30 c-33 55 -216 292 -344 444 -119 142 -276
342 -346 442 -28 37 -43 83 -29 83 1 0 50 -25 107 -56z m-1547 4 c-33 -66
-219 -315 -435 -584 -186 -232 -262 -356 -224 -370 25 -10 52 14 116 102 35
48 89 115 119 148 31 34 84 97 118 141 34 44 73 94 88 110 14 17 39 48 55 70
16 22 50 66 76 97 27 31 77 92 112 135 35 43 67 79 71 81 5 2 4 -16 -2 -40
-15 -67 -6 -149 22 -187 20 -29 21 -35 8 -42 -9 -5 -40 -42 -69 -81 -116 -160
-177 -238 -273 -348 -105 -119 -682 -702 -726 -732 -38 -27 -94 -24 -114 7
-22 34 -20 71 10 183 50 191 154 420 257 565 24 34 55 82 70 107 34 60 202
269 295 370 13 14 37 44 54 67 36 49 45 56 165 119 48 26 108 59 133 73 100
59 99 58 74 9z"/>
</g>
</svg>
